<svg xmlns="http://www.w3.org/2000/svg" viewBox="0 0 400 560" width="400" height="560">
  <defs>

    <!-- ===== HEAD / BODY GRADIENTS (6-stop for deep 3D) ===== -->
    <radialGradient id="headGrad" cx="40%" cy="32%" r="60%">
      <stop offset="0%"  stop-color="#F2CC90"/>
      <stop offset="18%" stop-color="#EAB868"/>
      <stop offset="42%" stop-color="#C88648"/>
      <stop offset="68%" stop-color="#A06830"/>
      <stop offset="88%" stop-color="#7A5028"/>
      <stop offset="100%" stop-color="#5C3A1A"/>
    </radialGradient>

    <radialGradient id="bodyGrad" cx="40%" cy="28%" r="64%">
      <stop offset="0%"  stop-color="#EABC7A"/>
      <stop offset="20%" stop-color="#D8A060"/>
      <stop offset="48%" stop-color="#B07840"/>
      <stop offset="72%" stop-color="#8A5A28"/>
      <stop offset="90%" stop-color="#644020"/>
      <stop offset="100%" stop-color="#4A2E16"/>
    </radialGradient>

    <radialGradient id="limbGrad" cx="42%" cy="34%" r="58%">
      <stop offset="0%"  stop-color="#DCA868"/>
      <stop offset="35%" stop-color="#C08848"/>
      <stop offset="68%" stop-color="#8E6C34"/>
      <stop offset="100%" stop-color="#5C3A1A"/>
    </radialGradient>

    <!-- ===== BELLY / PAW ===== -->
    <radialGradient id="bellyGrad" cx="50%" cy="36%" r="54%">
      <stop offset="0%"  stop-color="#FFF2E0"/>
      <stop offset="35%" stop-color="#F5E0C4"/>
      <stop offset="65%" stop-color="#E8C898"/>
      <stop offset="100%" stop-color="#D0A878"/>
    </radialGradient>
    <radialGradient id="pawGrad" cx="50%" cy="42%" r="52%">
      <stop offset="0%"  stop-color="#FFF0E0"/>
      <stop offset="50%" stop-color="#F0DCC8"/>
      <stop offset="100%" stop-color="#D8C0A0"/>
    </radialGradient>

    <!-- ===== EAR INNER ===== -->
    <radialGradient id="earInner" cx="44%" cy="38%" r="56%">
      <stop offset="0%"  stop-color="#FFB8C8"/>
      <stop offset="45%" stop-color="#F09098"/>
      <stop offset="100%" stop-color="#C85870"/>
    </radialGradient>

    <!-- ===== SNOUT ===== -->
    <radialGradient id="snoutGrad" cx="50%" cy="32%" r="56%">
      <stop offset="0%"  stop-color="#FFF2E4"/>
      <stop offset="38%" stop-color="#F0DCCA"/>
      <stop offset="70%" stop-color="#DEC8A8"/>
      <stop offset="100%" stop-color="#C8A880"/>
    </radialGradient>

    <!-- ===== NOSE ===== -->
    <radialGradient id="noseGrad" cx="36%" cy="28%" r="64%">
      <stop offset="0%"  stop-color="#7A5868"/>
      <stop offset="45%" stop-color="#4A3038"/>
      <stop offset="100%" stop-color="#1E1420"/>
    </radialGradient>

    <!-- ===== EYES ===== -->
    <radialGradient id="sclera" cx="44%" cy="40%" r="56%">
      <stop offset="0%"  stop-color="#FFFFFF"/>
      <stop offset="70%" stop-color="#FDFCFB"/>
      <stop offset="100%" stop-color="#E4E0DC"/>
    </radialGradient>
    <radialGradient id="irisGrad" cx="38%" cy="34%" r="56%">
      <stop offset="0%"  stop-color="#9A7438"/>
      <stop offset="25%" stop-color="#7A5828"/>
      <stop offset="55%" stop-color="#503818"/>
      <stop offset="82%" stop-color="#341E0C"/>
      <stop offset="100%" stop-color="#1E1008"/>
    </radialGradient>
    <radialGradient id="irisRim" cx="50%" cy="50%" r="50%">
      <stop offset="0%"  stop-color="transparent"/>
      <stop offset="68%" stop-color="transparent"/>
      <stop offset="82%" stop-color="#B88848" stop-opacity="0.45"/>
      <stop offset="100%" stop-color="#8A6830" stop-opacity="0.25"/>
    </radialGradient>
    <radialGradient id="hiLarge" cx="28%" cy="28%" r="48%">
      <stop offset="0%"  stop-color="#FFFFFF" stop-opacity="1"/>
      <stop offset="42%" stop-color="#FFFFFF" stop-opacity="0.75"/>
      <stop offset="100%" stop-color="#FFFFFF" stop-opacity="0"/>
    </radialGradient>

    <!-- ===== MOUTH ===== -->
    <linearGradient id="mouthInt" x1="0%" y1="0%" x2="0%" y2="100%">
      <stop offset="0%" stop-color="#C84848"/>
      <stop offset="60%" stop-color="#E06868"/>
      <stop offset="100%" stop-color="#D45858"/>
    </linearGradient>
    <linearGradient id="tongueGrad" x1="0%" y1="0%" x2="0%" y2="100%">
      <stop offset="0%" stop-color="#F09898"/>
      <stop offset="100%" stop-color="#D87070"/>
    </linearGradient>

    <!-- ===== SPECULAR / RIM ===== -->
    <radialGradient id="headSpec" cx="37%" cy="27%" r="38%">
      <stop offset="0%"  stop-color="#FFFFFF" stop-opacity="0.35"/>
      <stop offset="40%" stop-color="#FFFFFF" stop-opacity="0.10"/>
      <stop offset="100%" stop-color="#FFFFFF" stop-opacity="0"/>
    </radialGradient>
    <radialGradient id="bodySpec" cx="36%" cy="24%" r="42%">
      <stop offset="0%"  stop-color="#FFFFFF" stop-opacity="0.20"/>
      <stop offset="48%" stop-color="#FFFFFF" stop-opacity="0.05"/>
      <stop offset="100%" stop-color="#FFFFFF" stop-opacity="0"/>
    </radialGradient>
    <linearGradient id="rimLight" x1="0%" y1="0%" x2="100%" y2="0%">
      <stop offset="0%"  stop-color="transparent"/>
      <stop offset="78%" stop-color="transparent"/>
      <stop offset="100%" stop-color="#E0C888" stop-opacity="0.16"/>
    </linearGradient>

    <!-- ===== BACKPACK ===== -->
    <linearGradient id="bpBody" x1="0%" y1="0%" x2="55%" y2="100%">
      <stop offset="0%"  stop-color="#EF5757"/>
      <stop offset="38%" stop-color="#E04040"/>
      <stop offset="100%" stop-color="#B82828"/>
    </linearGradient>
    <linearGradient id="bpPocket" x1="0%" y1="0%" x2="0%" y2="100%">
      <stop offset="0%"  stop-color="#D03030"/>
      <stop offset="100%" stop-color="#A82020"/>
    </linearGradient>

    <!-- ===== BOOK ===== -->
    <linearGradient id="bookCover" x1="0%" y1="0%" x2="100%" y2="100%">
      <stop offset="0%"  stop-color="#5BB8F8"/>
      <stop offset="100%" stop-color="#1E88E5"/>
    </linearGradient>

    <!-- ===== FILTERS ===== -->
    <filter id="shadow" x="-30%" y="-20%" width="160%" height="160%">
      <feGaussianBlur in="SourceAlpha" stdDeviation="4.5"/>
      <feOffset dx="0" dy="4.5"/>
      <feComponentTransfer><feFuncA type="linear" slope="0.24"/></feComponentTransfer>
      <feMerge><feMergeNode/><feMergeNode in="SourceGraphic"/></feMerge>
    </filter>
    <filter id="softShadow" x="-40%" y="-30%" width="180%" height="180%">
      <feGaussianBlur in="SourceAlpha" stdDeviation="6.5"/>
      <feOffset dx="0" dy="4"/>
      <feComponentTransfer><feFuncA type="linear" slope="0.18"/></feComponentTransfer>
      <feMerge><feMergeNode/><feMergeNode in="SourceGraphic"/></feMerge>
    </filter>
    <!-- Feather blur for fur-zone edges and belly blend -->
    <filter id="feather" x="-50%" y="-50%" width="200%" height="200%">
      <feGaussianBlur in="SourceGraphic" stdDeviation="9"/>
    </filter>
    <filter id="featherSm" x="-50%" y="-50%" width="200%" height="200%">
      <feGaussianBlur in="SourceGraphic" stdDeviation="5"/>
    </filter>

    <!-- ===== ANIMATIONS ===== -->
    <style>
      @keyframes sparkle { 0%,100%{opacity:1} 50%{opacity:0.28} }
      .sp-a { animation: sparkle 2.9s ease-in-out infinite; }
      .sp-b { animation: sparkle 2.9s ease-in-out infinite 1.45s; }
    </style>
  </defs>

  <!-- ============================================================ -->
  <!-- TAIL — volumetric with light/shadow wrap                      -->
  <!-- ============================================================ -->
  <g filter="url(#shadow)">
    <!-- Dark shadow side of tail -->
    <path d="M 250 418 Q 296 430 314 396 Q 330 356 303 335 Q 278 320 264 342" fill="#4E3418"/>
    <!-- Main lit body of tail -->
    <path d="M 248 420 Q 292 433 310 398 Q 324 358 298 338 Q 275 324 262 346" fill="url(#limbGrad)"/>
    <!-- Top-edge highlight along outer curve -->
    <path d="M 250 417 Q 288 428 306 395 Q 318 360 295 342" fill="none" stroke="#E0B870" stroke-width="5" stroke-linecap="round" opacity="0.28"/>
    <!-- Tail tip — dark rounded end -->
    <ellipse cx="264" cy="347" rx="11" ry="13" fill="#4E3418" transform="rotate(-22 264 347)"/>
    <!-- Tip highlight -->
    <ellipse cx="261" cy="343" rx="4" ry="5" fill="#8A6838" opacity="0.38" transform="rotate(-22 261 343)"/>
  </g>

  <!-- ============================================================ -->
  <!-- BACKPACK                                                      -->
  <!-- ============================================================ -->
  <g filter="url(#shadow)">
    <path d="M 172 298 Q 163 318 165 362" stroke="#C82828" stroke-width="5.5" fill="none" stroke-linecap="round"/>
    <path d="M 228 298 Q 237 318 235 362" stroke="#C82828" stroke-width="5.5" fill="none" stroke-linecap="round"/>
    <rect x="161" y="268" width="78" height="96" rx="17" fill="url(#bpBody)"/>
    <rect x="164" y="271" width="72" height="90" rx="14" fill="#B82020" opacity="0.2"/>
    <rect x="169" y="318" width="62" height="30" rx="9" fill="url(#bpPocket)"/>
    <path d="M169,318 Q200,314 231,318" stroke="#982020" stroke-width="1.4" fill="#C42828"/>
    <circle cx="200" cy="316" r="2.3" fill="#FFD700"/>
    <path d="M 189 268 Q 200 260 211 268" stroke="#B82828" stroke-width="4.5" fill="none" stroke-linecap="round"/>
    <polygon points="200,327 202.2,332.5 208.2,332.5 203.2,336 205,341.5 200,338 195,341.5 196.8,336 191.8,332.5 197.8,332.5" fill="#FFD700"/>
  </g>

  <!-- ============================================================ -->
  <!-- LEGS — tapered paths with inner-thigh shadow                  -->
  <!-- ============================================================ -->
  <g filter="url(#shadow)">
    <!-- Left leg — tapered: wider top, narrower ankle -->
    <path d="M 135 412 Q 130 455 133 488 L 183 488 Q 185 455 187 412 Q 170 407 135 412 Z" fill="url(#limbGrad)"/>
    <!-- Inner-thigh shadow -->
    <ellipse cx="158" cy="416" rx="18" ry="7" fill="#4A2E16" opacity="0.2"/>
    <!-- Left paw -->
    <ellipse cx="158" cy="502" rx="34" ry="15" fill="url(#pawGrad)"/>
    <path d="M 138 500 Q 144 506 150 500" fill="none" stroke="#C8A880" stroke-width="1.2" opacity="0.5"/>
    <path d="M 150 500 Q 158 507 166 500" fill="none" stroke="#C8A880" stroke-width="1.2" opacity="0.5"/>
    <path d="M 166 500 Q 172 506 178 500" fill="none" stroke="#C8A880" stroke-width="1.2" opacity="0.5"/>
    <ellipse cx="158" cy="502" rx="12" ry="6" fill="#FFFFFF" opacity="0.12"/>

    <!-- Right leg — tapered -->
    <path d="M 213 412 Q 215 455 217 488 L 267 488 Q 270 455 265 412 Q 250 407 213 412 Z" fill="url(#limbGrad)"/>
    <!-- Inner-thigh shadow -->
    <ellipse cx="242" cy="416" rx="18" ry="7" fill="#4A2E16" opacity="0.2"/>
    <!-- Right paw -->
    <ellipse cx="242" cy="502" rx="34" ry="15" fill="url(#pawGrad)"/>
    <path d="M 222 500 Q 228 506 234 500" fill="none" stroke="#C8A880" stroke-width="1.2" opacity="0.5"/>
    <path d="M 234 500 Q 242 507 250 500" fill="none" stroke="#C8A880" stroke-width="1.2" opacity="0.5"/>
    <path d="M 250 500 Q 256 506 262 500" fill="none" stroke="#C8A880" stroke-width="1.2" opacity="0.5"/>
    <ellipse cx="242" cy="502" rx="12" ry="6" fill="#FFFFFF" opacity="0.12"/>
  </g>

  <!-- ============================================================ -->
  <!-- BODY                                                          -->
  <!-- ============================================================ -->
  <g>
    <!-- Main body -->
    <ellipse cx="200" cy="358" rx="84" ry="102" fill="url(#bodyGrad)" filter="url(#shadow)"/>
    <!-- Side contour shadow ring -->
    <ellipse cx="200" cy="358" rx="84" ry="102" fill="none" stroke="#4A2E16" stroke-width="28" opacity="0.08"/>
    <!-- Rim + specular -->
    <ellipse cx="200" cy="358" rx="84" ry="102" fill="url(#rimLight)"/>
    <ellipse cx="200" cy="358" rx="84" ry="102" fill="url(#bodySpec)"/>

    <!-- Under-chin shadow — anchors head to body -->
    <ellipse cx="200" cy="268" rx="52" ry="18" fill="#3A2210" opacity="0.28"/>
    <!-- Neck crease line -->
    <path d="M 172 275 Q 200 282 228 275" fill="none" stroke="#4A2E16" stroke-width="3" opacity="0.2" stroke-linecap="round"/>
    <!-- Shoulder contour shadows -->
    <path d="M 128 310 Q 142 295 162 305" fill="none" stroke="#4A2E16" stroke-width="5" opacity="0.1" stroke-linecap="round"/>
    <path d="M 272 310 Q 258 295 238 305" fill="none" stroke="#4A2E16" stroke-width="5" opacity="0.1" stroke-linecap="round"/>

    <!-- Chest fur tuft — lighter patch just below neck -->
    <ellipse cx="200" cy="296" rx="22" ry="18" fill="#E8D0B8" opacity="0.5" filter="url(#featherSm)"/>
    <ellipse cx="200" cy="294" rx="11" ry="9" fill="#FFF0E0" opacity="0.38"/>

    <!-- Belly — feathered outer glow blends into body -->
    <ellipse cx="200" cy="375" rx="56" ry="70" fill="#E8D0B0" opacity="0.42" filter="url(#feather)"/>
    <!-- Belly main patch (crisp center) -->
    <ellipse cx="200" cy="375" rx="46" ry="60" fill="url(#bellyGrad)"/>
    <!-- Belly top highlight -->
    <ellipse cx="196" cy="350" rx="28" ry="35" fill="#FFF8F0" opacity="0.16"/>
  </g>

  <!-- ============================================================ -->
  <!-- BOOK                                                          -->
  <!-- ============================================================ -->
  <g filter="url(#shadow)" transform="rotate(-14 96 400)">
    <rect x="73" y="376" width="38" height="48" rx="2" fill="#FAFAFA" stroke="#DDD" stroke-width="0.5"/>
    <rect x="71" y="373" width="38" height="48" rx="3" fill="url(#bookCover)" stroke="#1565C0" stroke-width="1.4"/>
    <rect x="69" y="373" width="4" height="48" rx="1" fill="#1565C0"/>
    <rect x="79" y="385" width="22" height="2" rx="1" fill="#FFFFFF" opacity="0.82"/>
    <rect x="79" y="390" width="15" height="2" rx="1" fill="#FFFFFF" opacity="0.58"/>
    <polygon points="90,400 91.8,405 97,405 92.6,408.2 94.2,413.4 90,410.4 85.8,413.4 87.4,408.2 83,405 88.2,405" fill="#FFD700"/>
  </g>

  <!-- ============================================================ -->
  <!-- ARMS                                                          -->
  <!-- ============================================================ -->
  <g>
    <g filter="url(#shadow)">
      <ellipse cx="122" cy="325" rx="25" ry="58" fill="url(#limbGrad)" transform="rotate(-17 122 325)"/>
      <ellipse cx="108" cy="393" rx="21" ry="14" fill="url(#pawGrad)" transform="rotate(-17 108 393)"/>
      <path d="M 91 390 Q 96 395 101 390" fill="none" stroke="#C8A880" stroke-width="1" opacity="0.45" transform="rotate(-17 108 393)"/>
      <path d="M 101 390 Q 108 396 115 390" fill="none" stroke="#C8A880" stroke-width="1" opacity="0.45" transform="rotate(-17 108 393)"/>
      <path d="M 115 390 Q 120 395 125 390" fill="none" stroke="#C8A880" stroke-width="1" opacity="0.45" transform="rotate(-17 108 393)"/>
    </g>
    <g filter="url(#shadow)">
      <ellipse cx="278" cy="325" rx="25" ry="58" fill="url(#limbGrad)" transform="rotate(17 278 325)"/>
      <ellipse cx="292" cy="393" rx="21" ry="14" fill="url(#pawGrad)" transform="rotate(17 292 393)"/>
      <path d="M 275 390 Q 280 395 285 390" fill="none" stroke="#C8A880" stroke-width="1" opacity="0.45" transform="rotate(17 292 393)"/>
      <path d="M 285 390 Q 292 396 299 390" fill="none" stroke="#C8A880" stroke-width="1" opacity="0.45" transform="rotate(17 292 393)"/>
      <path d="M 299 390 Q 304 395 309 390" fill="none" stroke="#C8A880" stroke-width="1" opacity="0.45" transform="rotate(17 292 393)"/>
    </g>
  </g>

  <!-- ============================================================ -->
  <!-- HEAD                                                          -->
  <!-- ============================================================ -->
  <g filter="url(#softShadow)">

    <!-- Head base -->
    <circle cx="200" cy="158" r="96" fill="url(#headGrad)"/>

    <!-- ===== EARS ===== -->
    <ellipse cx="132" cy="86" rx="31" ry="43" fill="url(#limbGrad)" transform="rotate(-15 132 86)"/>
    <ellipse cx="132" cy="90" rx="18" ry="29" fill="url(#earInner)" transform="rotate(-15 132 90)"/>
    <ellipse cx="130" cy="84" rx="7" ry="11" fill="#FFD0D8" opacity="0.32" transform="rotate(-15 130 84)"/>
    <ellipse cx="268" cy="86" rx="31" ry="43" fill="url(#limbGrad)" transform="rotate(15 268 86)"/>
    <ellipse cx="268" cy="90" rx="18" ry="29" fill="url(#earInner)" transform="rotate(15 268 90)"/>
    <ellipse cx="270" cy="84" rx="7" ry="11" fill="#FFD0D8" opacity="0.32" transform="rotate(15 270 84)"/>

    <!-- Head specular + rim -->
    <circle cx="200" cy="158" r="96" fill="url(#headSpec)"/>
    <circle cx="200" cy="158" r="96" fill="url(#rimLight)"/>

    <!-- ===== FUR COLOR ZONES ===== -->
    <!-- Forehead dark zone -->
    <ellipse cx="200" cy="118" rx="62" ry="38" fill="#7A5228" opacity="0.22" filter="url(#featherSm)"/>
    <!-- Lighter fur rings around each eye socket -->
    <ellipse cx="163" cy="150" rx="34" ry="38" fill="#E8C888" opacity="0.26" filter="url(#featherSm)"/>
    <ellipse cx="237" cy="150" rx="34" ry="38" fill="#E8C888" opacity="0.26" filter="url(#featherSm)"/>
    <!-- Cheek fur zones — warmer bands -->
    <ellipse cx="138" cy="185" rx="26" ry="22" fill="#D4A060" opacity="0.17" filter="url(#featherSm)"/>
    <ellipse cx="262" cy="185" rx="26" ry="22" fill="#D4A060" opacity="0.17" filter="url(#featherSm)"/>

    <!-- ===== NOSE BRIDGE shadow ===== -->
    <path d="M 196 148 Q 200 156 204 166" fill="none" stroke="#6A4828" stroke-width="3.5" opacity="0.14" stroke-linecap="round"/>

    <!-- ===== SNOUT ===== -->
    <!-- Muzzle under-shadow (protrusion cue) -->
    <ellipse cx="200" cy="204" rx="44" ry="10" fill="#4A2E18" opacity="0.22"/>
    <!-- Snout body -->
    <ellipse cx="200" cy="192" rx="44" ry="34" fill="url(#snoutGrad)"/>
    <!-- Snout top highlight -->
    <ellipse cx="198" cy="184" rx="24" ry="12" fill="#FFFFFF" opacity="0.14"/>
    <!-- Forehead-to-snout crease -->
    <path d="M 162 172 Q 200 168 238 172" fill="none" stroke="#6A4828" stroke-width="2.2" opacity="0.18" stroke-linecap="round"/>

    <!-- ===== NOSE with NOSTRILS ===== -->
    <ellipse cx="200" cy="180" rx="13" ry="10" fill="url(#noseGrad)"/>
    <!-- Left nostril -->
    <ellipse cx="195.5" cy="181" rx="3" ry="2.2" fill="#1A1018" opacity="0.72"/>
    <!-- Right nostril -->
    <ellipse cx="204.5" cy="181" rx="3" ry="2.2" fill="#1A1018" opacity="0.72"/>
    <!-- Nose specular between nostrils -->
    <ellipse cx="200" cy="177.5" rx="3.2" ry="2" fill="#FFFFFF" opacity="0.5"/>

    <!-- ===== MOUTH ===== -->
    <!-- Philtrum -->
    <path d="M 200 190 L 200 195" stroke="#3A2822" stroke-width="1.8" stroke-linecap="round" fill="none"/>
    <!-- Shadow above lip (lip depth) -->
    <path d="M 186 195 Q 200 197 214 195" fill="none" stroke="#5A3828" stroke-width="1.6" opacity="0.35" stroke-linecap="round"/>
    <!-- Mouth opening -->
    <path d="M 186 196 Q 200 210 214 196" fill="url(#mouthInt)" stroke="#3A2822" stroke-width="2.2" stroke-linecap="round"/>
    <!-- Tongue -->
    <ellipse cx="200" cy="204" rx="8" ry="4.5" fill="url(#tongueGrad)"/>
    <ellipse cx="199" cy="202.5" rx="4" ry="2" fill="#FFFFFF" opacity="0.22"/>

    <!-- ===== CHIN FUR PATCH ===== -->
    <ellipse cx="200" cy="219" rx="20" ry="13" fill="#E8D0B8" opacity="0.4" filter="url(#featherSm)"/>
    <ellipse cx="200" cy="217" rx="11" ry="7" fill="#F0DCC8" opacity="0.32"/>

    <!-- ===== CHEEK BLUSH + CHEEKBONE LIGHT ===== -->
    <ellipse cx="142" cy="182" rx="17" ry="10" fill="#FF8FA8" opacity="0.2"/>
    <ellipse cx="258" cy="182" rx="17" ry="10" fill="#FF8FA8" opacity="0.2"/>
    <ellipse cx="148" cy="168" rx="14" ry="8" fill="#F8E8D0" opacity="0.2" filter="url(#featherSm)"/>
    <ellipse cx="252" cy="168" rx="14" ry="8" fill="#F8E8D0" opacity="0.2" filter="url(#featherSm)"/>

    <!-- ===== LEFT EYE ===== -->
    <g>
      <!-- Socket depth shadow -->
      <ellipse cx="163" cy="152" rx="29" ry="35" fill="#3E2818" opacity="0.32"/>
      <!-- Sclera -->
      <ellipse cx="163" cy="152" rx="25" ry="31" fill="url(#sclera)"/>
      <!-- FILLED upper eyelid — thick curved hood over top of sclera -->
      <path d="M 138 146 Q 140 131 163 129 Q 186 131 188 146 Q 178 139 163 138 Q 148 139 138 146 Z" fill="#5A4230" opacity="0.7"/>
      <!-- Upper lid light rim -->
      <path d="M 141 145 Q 163 137 185 145" fill="none" stroke="#8A7050" stroke-width="1.1" opacity="0.38" stroke-linecap="round"/>
      <!-- FILLED lower eyelid crescent -->
      <path d="M 143 168 Q 163 175 183 168 Q 168 171 163 171 Q 158 171 143 168 Z" fill="#7A6448" opacity="0.26"/>
      <!-- Iris -->
      <circle cx="165" cy="156" r="17.5" fill="url(#irisGrad)"/>
      <circle cx="165" cy="156" r="17.5" fill="url(#irisRim)"/>
      <!-- Pupil -->
      <circle cx="165" cy="156" r="10.5" fill="#100C06"/>
      <!-- Highlights -->
      <ellipse cx="157.5" cy="148.5" rx="6.5" ry="8" fill="url(#hiLarge)" class="sp-a"/>
      <circle cx="172.5" cy="163" r="2.8" fill="#FFFFFF" opacity="0.6" class="sp-b"/>
    </g>

    <!-- ===== RIGHT EYE ===== -->
    <g>
      <!-- Socket depth shadow -->
      <ellipse cx="237" cy="152" rx="29" ry="35" fill="#3E2818" opacity="0.32"/>
      <!-- Sclera -->
      <ellipse cx="237" cy="152" rx="25" ry="31" fill="url(#sclera)"/>
      <!-- FILLED upper eyelid -->
      <path d="M 212 146 Q 214 131 237 129 Q 260 131 262 146 Q 252 139 237 138 Q 222 139 212 146 Z" fill="#5A4230" opacity="0.7"/>
      <!-- Upper lid light rim -->
      <path d="M 215 145 Q 237 137 259 145" fill="none" stroke="#8A7050" stroke-width="1.1" opacity="0.38" stroke-linecap="round"/>
      <!-- FILLED lower eyelid crescent -->
      <path d="M 217 168 Q 237 175 257 168 Q 242 171 237 171 Q 232 171 217 168 Z" fill="#7A6448" opacity="0.26"/>
      <!-- Iris -->
      <circle cx="235" cy="156" r="17.5" fill="url(#irisGrad)"/>
      <circle cx="235" cy="156" r="17.5" fill="url(#irisRim)"/>
      <!-- Pupil -->
      <circle cx="235" cy="156" r="10.5" fill="#100C06"/>
      <!-- Highlights -->
      <ellipse cx="242.5" cy="148.5" rx="6.5" ry="8" fill="url(#hiLarge)" class="sp-b"/>
      <circle cx="227.5" cy="163" r="2.8" fill="#FFFFFF" opacity="0.6" class="sp-a"/>
    </g>

    <!-- ===== EYEBROWS ===== -->
    <path d="M 144 127 Q 163 118 184 123" stroke="#524020" stroke-width="3.8" fill="none" stroke-linecap="round" opacity="0.42"/>
    <path d="M 216 123 Q 237 118 256 127" stroke="#524020" stroke-width="3.8" fill="none" stroke-linecap="round" opacity="0.42"/>

  </g>
</svg>
